<?xml version="1.0" standalone="no"?>
<!DOCTYPE svg PUBLIC "-//W3C//DTD SVG 20010904//EN"
 "http://www.w3.org/TR/2001/REC-SVG-20010904/DTD/svg10.dtd">
<svg version="1.0" xmlns="http://www.w3.org/2000/svg"
 width="64.000000pt" height="64.000000pt" viewBox="0 0 64.000000 64.000000"
 preserveAspectRatio="xMidYMid meet">
<metadata>
Created by potrace 1.13, written by Peter Selinger 2001-2015
</metadata>
<g transform="translate(0.000000,64.000000) scale(0.100000,-0.100000)"
fill="#000000" stroke="none">
<path d="M4 627 c-3 -8 -4 -41 -2 -73 l3 -59 145 -5 c136 -6 139 -6 43 -8
l-102 -2 -4 -62 -3 -63 -2 63 -2 62 -40 0 -40 0 0 -74 0 -75 33 -4 32 -4 -32
-1 -33 -2 0 -79 0 -80 53 -4 52 -3 -52 -2 -53 -2 0 -70 0 -70 320 0 320 0 0
70 0 70 -67 1 c-38 1 -58 4 -45 6 21 4 22 9 22 84 l0 79 -150 0 -150 0 -1 -32
-1 -33 -7 30 c-6 29 -8 30 -76 36 -54 4 -36 6 73 7 138 2 143 3 152 25 l9 22
0 -22 c1 -23 3 -23 121 -23 l120 0 0 75 c0 41 -4 75 -9 75 -5 0 -7 12 -3 28 4
15 5 50 2 77 l-5 50 -139 3 c-93 2 -143 -1 -152 -9 -9 -7 -15 -35 -16 -73 l-2
-61 -5 70 -6 70 -148 3 c-118 2 -148 0 -153 -11z"/>
</g>
</svg>
